<?xml version="1.0" encoding="utf-8"?>
<!-- Generator: Adobe Illustrator 16.0.4, SVG Export Plug-In . SVG Version: 6.00 Build 0)  -->
<!DOCTYPE svg PUBLIC "-//W3C//DTD SVG 1.1//EN" "http://www.w3.org/Graphics/SVG/1.1/DTD/svg11.dtd">
<svg version="1.1" id="Layer_1" xmlns="http://www.w3.org/2000/svg" xmlns:xlink="http://www.w3.org/1999/xlink" x="0px" y="0px"
	 width="48px" height="521px" viewBox="0 0 48 521" enable-background="new 0 0 48 521" xml:space="preserve">
<g>
	<path fill="#FF5744" d="M30.808,41.729c1.942,0,2.146,0.205,2.146,2.146v0.971c0,1.993-0.205,2.146-2.146,2.146H19.514
		c-1.942,0-2.146-0.205-2.146-2.146V15.054c0-1.942,0.153-2.146,2.146-2.146h1.584c1.993,0,2.146,0.205,2.146,2.146v26.675H30.808z"
		/>
</g>
<g>
	<path fill="#FF5744" d="M30.604,54.094c1.942,0,2.146,0.205,2.146,2.146v21.872c0,4.395-0.307,5.979-1.431,7.563
		c-1.329,1.891-3.986,3.015-7.103,3.015c-3.168,0-5.826-1.125-7.154-3.015c-1.124-1.584-1.431-3.168-1.431-7.563V56.241
		c0-1.942,0.204-2.146,2.146-2.146h1.584c1.942,0,2.146,0.205,2.146,2.146v22.536c0,3.833,0.665,5.162,2.708,5.162
		c1.993,0,2.657-1.278,2.657-5.162V56.241c0-1.942,0.205-2.146,2.146-2.146H30.604z"/>
</g>
<g>
	<path fill="#FF5744" d="M17.419,101.362c0.051,1.482,0.051,1.073,0.205,3.884c0.051,1.125,0.102,3.782,0.102,5.57v16.403
		c0,1.942-0.205,2.146-2.146,2.146h-1.329c-1.942,0-2.146-0.205-2.146-2.146V97.427c0-1.942,0.204-2.146,2.146-2.146h5.008
		c1.839,0,1.942,0.103,2.249,1.891l1.533,9.454c0.307,1.737,0.358,2.095,0.715,5.059c0.256,2.044,0.256,2.095,0.358,3.322
		c0.307-2.606,0.358-2.811,0.409-3.373c0.153-1.533,0.46-3.73,0.715-5.008l1.584-9.454c0.307-1.84,0.357-1.891,2.249-1.891h5.059
		c1.942,0,2.146,0.205,2.146,2.146v29.792c0,1.942-0.204,2.146-2.146,2.146h-1.329c-1.942,0-2.146-0.205-2.146-2.146v-15.586
		c0-1.737,0-2.453,0.102-4.446c0.051-2.249,0-1.175,0.103-3.526c0-1.175,0-1.073,0.102-2.3c-0.358,1.993-0.255,1.278-0.409,2.3
		c-0.358,2.095-0.256,1.329-0.46,2.402c-0.153,0.92-0.255,1.584-0.255,1.584l-0.205,1.227l-0.205,1.175l-0.255,1.227l-2.964,16.199
		c-0.358,1.686-0.562,1.891-1.737,1.891c-1.891,0-2.044-0.102-2.351-1.891l-3.015-16.659c-0.715-4.139-0.511-2.862-0.715-3.986
		c-0.409-2.249-0.205-1.227-0.511-3.066l-0.153-0.664l-0.102-0.613l-0.103-0.562L17.419,101.362z"/>
</g>
<g>
	<path fill="#FF5744" d="M22.376,168.406c0,1.942-0.204,2.146-2.146,2.146h-1.584c-1.942,0-2.146-0.205-2.146-2.146v-29.792
		c0-1.942,0.204-2.146,2.146-2.146h6.184c7.001,0,8.585,1.789,8.585,9.658c0,7.104-1.891,9.454-7.614,9.454h-3.424V168.406z
		 M24.369,150.623c2.351,0,3.066-1.073,3.066-4.701c0-3.628-0.664-4.497-3.271-4.497h-1.789v9.198H24.369z"/>
</g>
<g>
	<path fill="#FF5744" d="M22.478,191.758h7.206c1.993,0,2.146,0.153,2.146,2.146v0.665c0,1.993-0.153,2.146-2.146,2.146h-7.206
		v9.556h8.381c1.942,0,2.095,0.153,2.095,2.146v1.175c0,1.993-0.153,2.146-2.095,2.146H18.748c-1.993,0-2.146-0.205-2.146-2.146
		V179.8c0-1.942,0.153-2.146,2.146-2.146h11.498c1.993,0,2.146,0.153,2.146,2.146v1.175c0,1.993-0.153,2.146-2.146,2.146h-7.768
		V191.758z"/>
</g>
<g>
	<path fill="#FF5744" d="M22.733,239.179c-0.255-0.869-0.664-2.401-1.226-4.599c-0.562-2.299-0.46-1.839-1.533-6.592
		c0.102,1.277,0.051,0.613,0.307,4.344c0,0.306,0.051,1.737,0.153,3.73c0.051,1.84,0.102,3.22,0.102,3.577l0.102,11.14l0.051,0.562
		c0.051,1.277-0.358,1.584-2.146,1.584h-1.175c-1.942,0-2.146-0.205-2.146-2.146v-29.792c0-1.942,0.204-2.146,2.146-2.146h2.402
		c1.789,0,1.84,0,2.351,1.738l3.526,12.213c0.767,2.606,1.533,5.877,2.402,10.169c-0.051-2.044-0.051-1.277-0.051-2.453
		c-0.102-2.504-0.102-2.146-0.102-3.526c-0.051-1.277-0.051-2.913-0.103-4.19l-0.102-11.804l-0.051-0.562
		c-0.051-1.278,0.358-1.584,2.146-1.584h1.175c1.942,0,2.146,0.205,2.146,2.146v29.792c0,1.942-0.205,2.146-2.146,2.146h-2.402
		c-1.789,0-1.789,0-2.299-1.737L22.733,239.179z"/>
</g>
<g>
	<path fill="#FF5744" d="M21.967,333.101c0,1.942-0.153,2.146-2.146,2.146h-1.584c-1.993,0-2.146-0.204-2.146-2.146v-29.792
		c0-1.942,0.204-2.146,2.146-2.146h5.928c7,0,8.534,1.687,8.534,9.403c0,4.803-0.715,6.029-3.986,6.796
		c2.913,0.511,3.781,1.789,3.781,5.877v4.905v2.657c0,0.92,0.051,1.585,0.103,1.892c0.102,0.664,0.204,1.175,0.204,1.328
		c0,0.92-0.511,1.227-2.095,1.227h-1.84c-2.249,0-2.197,0.051-2.249-4.293v-6.234c0-3.73-0.818-4.956-3.322-4.956h-1.329V333.101z
		 M23.654,315.011c2.657,0,3.424-1.022,3.424-4.599c0-3.577-0.665-4.497-3.322-4.497h-1.789v9.096H23.654z"/>
</g>
<g>
	<path fill="#FF5744" d="M21.507,367.338l-0.919,7.154c-0.256,1.839-0.358,1.941-2.249,1.941h-1.431
		c-1.635,0-2.095-0.256-2.095-1.227c0-0.256,0-0.204,0.153-1.073l4.702-29.843c0.307-1.84,0.409-1.942,2.249-1.942h3.781
		c1.84,0,1.942,0.051,2.249,1.891l5.366,29.844c0.153,0.868,0.153,0.817,0.153,1.124c0,0.971-0.46,1.227-2.146,1.227h-1.431
		c-1.84,0-1.942-0.103-2.249-1.891l-1.124-7.205H21.507z M24.829,356.607c-0.153-0.92-0.409-3.22-0.664-5.264
		c-0.103-1.022-0.103-1.073-0.358-3.73c-0.358,5.212-0.46,6.184-0.869,8.994l-0.767,5.774h3.577L24.829,356.607z"/>
</g>
<g>
	<path fill="#FF5744" d="M15.682,385.682c0-1.942,0.204-2.146,2.146-2.146h5.468c8.585,0,9.709,1.329,9.709,11.805v10.935
		c0,10.016-1.124,11.346-9.709,11.346h-5.468c-1.993,0-2.146-0.205-2.146-2.146V385.682z M22.989,413.072
		c3.424,0,4.139-0.92,4.139-5.416V393.45c0-4.497-0.715-5.417-4.139-5.417h-1.431v25.04H22.989z"/>
</g>
<g>
	<path fill="#FF5744" d="M27.077,456.66c0,1.943-0.204,2.146-2.146,2.146h-1.584c-1.942,0-2.146-0.203-2.146-2.146v-29.791
		c0-1.943,0.204-2.146,2.146-2.146h1.584c1.942,0,2.146,0.203,2.146,2.146V456.66z"/>
</g>
<g>
	<path fill="#FF5744" d="M32.647,489.416c0,5.16-0.409,6.898-1.942,8.637c-1.38,1.584-3.73,2.451-6.592,2.451
		s-5.212-0.867-6.592-2.451c-1.533-1.738-1.942-3.477-1.942-8.637v-12.93c0-5.16,0.409-6.898,1.942-8.635
		c1.379-1.586,3.73-2.453,6.592-2.453s5.212,0.867,6.592,2.453c1.533,1.736,1.942,3.475,1.942,8.635V489.416z M21.456,489.312
		c0,5.111,0.562,6.439,2.657,6.439s2.657-1.328,2.657-6.439V476.59c0-5.111-0.562-6.439-2.657-6.439s-2.657,1.328-2.657,6.439
		V489.312z"/>
</g>
</svg>
