<?xml version="1.0" encoding="utf-8"?>
<!-- Generator: Adobe Illustrator 16.0.4, SVG Export Plug-In . SVG Version: 6.00 Build 0)  -->
<!DOCTYPE svg PUBLIC "-//W3C//DTD SVG 1.1//EN" "http://www.w3.org/Graphics/SVG/1.1/DTD/svg11.dtd">
<svg version="1.1" id="Layer_1" xmlns="http://www.w3.org/2000/svg" xmlns:xlink="http://www.w3.org/1999/xlink" x="0px" y="0px"
	 width="48px" height="562px" viewBox="0 0 48 562" enable-background="new 0 0 48 562" xml:space="preserve">
<g>
	<path fill="#FF5744" d="M19.33,42.169c0.255-3.373,0.255-3.679,0.357-4.752c0.153-1.686,0.307-3.475,0.46-4.803l1.584-13.849
		c0.204-1.891,0.307-1.993,2.197-1.993h2.197c1.891,0,1.993,0.103,2.249,1.942l1.891,13.9c0.205,1.379,0.46,3.884,0.613,5.928
		c0.153,1.38,0.153,1.533,0.358,4.19c0.102-1.431,0.102-1.125,0.255-3.271c0.102-1.073,0,0.102,0.307-3.68
		c0.153-1.584,0.255-2.708,0.307-3.168l1.431-13.849c0.205-1.891,0.358-1.993,2.249-1.993h1.635c1.636,0,2.096,0.256,2.096,1.227
		c0,0.255,0,0.205-0.153,1.073l-4.548,29.843c-0.256,1.891-0.358,1.942-2.249,1.942h-2.504c-1.84,0-1.942-0.102-2.198-1.942
		l-1.993-14.359c-0.153-0.818-0.358-2.913-0.511-4.344c-0.051-0.92-0.102-1.737-0.255-3.526c-0.153,2.044-0.102,1.379-0.153,2.248
		c-0.205,2.504-0.255,3.066-0.562,5.622l-1.533,14.308c-0.205,1.891-0.307,1.993-2.197,1.993h-2.811
		c-1.84,0-1.942-0.051-2.249-1.942l-4.65-29.843c-0.153-0.818-0.153-0.767-0.153-1.073c0-0.971,0.46-1.227,2.095-1.227h1.584
		c1.891,0,1.993,0.103,2.249,1.993l1.687,13.849c0.102,0.869,0.205,2.249,0.46,4.854c0.051,0.767-0.051-0.409,0.255,3.475
		c0,0.255,0.051,0.919,0.153,1.789L19.33,42.169z"/>
</g>
<g>
	<path fill="#FF5744" d="M31.747,86.78c1.942,0,2.146,0.205,2.146,2.146v0.971c0,1.993-0.205,2.146-2.146,2.146H20.454
		c-1.942,0-2.146-0.205-2.146-2.146V60.105c0-1.942,0.153-2.146,2.146-2.146h1.584c1.993,0,2.146,0.205,2.146,2.146V86.78H31.747z"
		/>
</g>
<g>
	<path fill="#FF5744" d="M23.315,131.083c0,1.942-0.204,2.146-2.146,2.146h-1.584c-1.942,0-2.146-0.205-2.146-2.146v-29.792
		c0-1.942,0.204-2.146,2.146-2.146h6.184c7.001,0,8.585,1.789,8.585,9.658c0,7.104-1.891,9.454-7.614,9.454h-3.424V131.083z
		 M25.309,113.3c2.351,0,3.066-1.073,3.066-4.701c0-3.628-0.664-4.497-3.271-4.497h-1.789v9.198H25.309z"/>
</g>
<g>
	<path fill="#FF5744" d="M23.673,160.67c-0.255-0.869-0.664-2.401-1.226-4.599c-0.562-2.299-0.46-1.839-1.533-6.592
		c0.102,1.277,0.051,0.613,0.307,4.344c0,0.306,0.051,1.737,0.153,3.73c0.051,1.84,0.102,3.22,0.102,3.577l0.102,11.14l0.051,0.562
		c0.051,1.277-0.358,1.584-2.146,1.584h-1.175c-1.942,0-2.146-0.205-2.146-2.146v-29.792c0-1.942,0.204-2.146,2.146-2.146h2.402
		c1.789,0,1.84,0,2.351,1.738l3.526,12.213c0.767,2.606,1.533,5.877,2.402,10.169c-0.051-2.044-0.051-1.277-0.051-2.453
		c-0.102-2.504-0.102-2.146-0.102-3.526c-0.051-1.277-0.051-2.913-0.103-4.19l-0.102-11.804l-0.051-0.562
		c-0.051-1.278,0.358-1.584,2.146-1.584H31.9c1.942,0,2.146,0.205,2.146,2.146v29.792c0,1.942-0.205,2.146-2.146,2.146h-2.402
		c-1.789,0-1.789,0-2.299-1.737L23.673,160.67z"/>
</g>
<g>
	<path fill="#FF5744" d="M21.578,228.888c-1.789,0-2.146-0.307-2.146-1.635c0-1.839,0.153-2.146,1.124-2.351
		c1.431-0.307,2.198-0.715,2.76-1.584c0.511-0.665,0.511-0.665,1.993-0.665h1.482c1.941,0,2.146,0.205,2.146,2.146v29.792
		c0,1.942-0.205,2.146-2.146,2.146h-1.329c-1.941,0-2.146-0.205-2.146-2.146v-25.704H21.578z"/>
</g>
<g>
	<path fill="#FF5744" d="M33.587,287.45c0,3.985-0.409,6.234-1.38,7.818c-1.277,1.993-3.884,3.168-7.103,3.168
		c-3.271,0-5.877-1.175-7.154-3.168c-0.971-1.584-1.38-3.833-1.38-7.818v-13.133c0-3.986,0.409-6.234,1.38-7.819
		c1.277-1.993,3.884-3.168,7.154-3.168c3.219,0,5.826,1.175,7.103,3.168c0.971,1.584,1.38,3.833,1.38,7.819V287.45z M22.549,287.858
		c0,4.6,0.562,5.979,2.555,5.979c1.942,0,2.504-1.38,2.504-5.979v-13.95c0-4.65-0.562-5.979-2.504-5.979
		c-1.993,0-2.555,1.379-2.555,5.979V287.858z"/>
</g>
<g>
	<path fill="#FF5744" d="M22.242,316.729c1.533-0.817,2.504-1.073,3.986-1.073c2.913,0,5.162,1.278,6.132,3.476
		c0.818,1.84,1.022,3.372,1.022,8.176c0,5.621-0.255,7.205-1.431,9.147c-1.227,1.993-3.73,3.168-6.899,3.168
		c-5.826,0-8.278-2.504-8.278-8.381v-1.891c0-1.992,0.153-2.146,2.095-2.146h1.227c1.942,0,2.044,0.102,2.146,2.146v0.972
		c0,3.577,0.613,4.701,2.555,4.701c2.351,0,2.964-1.482,2.964-7.41c0-5.57-0.715-7.358-2.862-7.358
		c-1.227,0-2.197,0.716-2.453,1.788c-0.205,0.767-0.562,0.972-2.095,0.972h-1.073c-1.942,0-2.146-0.205-2.146-2.146v-13.695
		c0-1.942,0.153-2.146,2.146-2.146h11.345c1.942,0,2.095,0.204,2.095,2.146v0.664c0,1.942-0.153,2.146-2.095,2.146h-8.381V316.729z"
		/>
</g>
<g>
	<path fill="#FF5744" d="M27.812,367.676c0,1.993-0.205,2.146-2.146,2.146h-1.175c-1.942,0-2.146-0.153-2.146-2.146v-1.993
		c0-1.993,0.204-2.146,2.146-2.146h1.175c1.942,0,2.146,0.153,2.146,2.146V367.676z"/>
</g>
<g>
	<path fill="#FF5744" d="M22.242,399.102c1.533-0.817,2.504-1.073,3.986-1.073c2.913,0,5.162,1.278,6.132,3.476
		c0.818,1.84,1.022,3.373,1.022,8.175c0,5.621-0.255,7.205-1.431,9.148c-1.227,1.992-3.73,3.168-6.899,3.168
		c-5.826,0-8.278-2.504-8.278-8.381v-1.891c0-1.992,0.153-2.146,2.095-2.146h1.227c1.942,0,2.044,0.102,2.146,2.146v0.971
		c0,3.578,0.613,4.701,2.555,4.701c2.351,0,2.964-1.482,2.964-7.41c0-5.57-0.715-7.358-2.862-7.358
		c-1.227,0-2.197,0.716-2.453,1.788c-0.205,0.768-0.562,0.973-2.095,0.973h-1.073c-1.942,0-2.146-0.205-2.146-2.147v-13.695
		c0-1.942,0.153-2.146,2.146-2.146h11.345c1.942,0,2.095,0.204,2.095,2.146v0.664c0,1.942-0.153,2.146-2.095,2.146h-8.381V399.102z"
		/>
</g>
<g>
	<path fill="#FF5744" d="M24.082,483.775h6.848c1.993,0,2.146,0.205,2.146,2.146v0.664c0,1.941-0.153,2.146-2.146,2.146h-6.848
		v12.928c0,1.943-0.204,2.146-2.146,2.146h-1.584c-1.942,0-2.146-0.203-2.146-2.146v-29.791c0-1.943,0.204-2.146,2.146-2.146H31.85
		c1.942,0,2.146,0.203,2.146,2.146v0.971c0,1.941-0.205,2.146-2.146,2.146h-7.768V483.775z"/>
</g>
<g>
	<path fill="#FF5744" d="M18.308,516.99c0.051,1.482,0.051,1.072,0.205,3.883c0.051,1.125,0.102,3.781,0.102,5.57v16.404
		c0,1.941-0.205,2.146-2.146,2.146h-1.329c-1.942,0-2.146-0.205-2.146-2.146v-29.793c0-1.941,0.204-2.146,2.146-2.146h5.008
		c1.839,0,1.942,0.104,2.249,1.891l1.533,9.455c0.307,1.736,0.358,2.094,0.715,5.059c0.256,2.045,0.256,2.096,0.358,3.322
		c0.307-2.607,0.358-2.811,0.409-3.373c0.153-1.533,0.46-3.73,0.715-5.008l1.584-9.455c0.307-1.84,0.357-1.891,2.249-1.891h5.059
		c1.942,0,2.146,0.205,2.146,2.146v29.793c0,1.941-0.204,2.146-2.146,2.146h-1.329c-1.942,0-2.146-0.205-2.146-2.146v-15.586
		c0-1.738,0-2.453,0.102-4.445c0.051-2.25,0-1.176,0.103-3.527c0-1.176,0-1.072,0.102-2.299c-0.358,1.992-0.255,1.277-0.409,2.299
		c-0.358,2.096-0.256,1.328-0.46,2.402c-0.153,0.92-0.255,1.584-0.255,1.584l-0.205,1.227l-0.205,1.176l-0.255,1.227l-2.964,16.199
		c-0.358,1.686-0.562,1.891-1.737,1.891c-1.891,0-2.044-0.104-2.351-1.891l-3.015-16.66c-0.715-4.139-0.511-2.861-0.715-3.986
		c-0.409-2.248-0.205-1.227-0.511-3.064l-0.153-0.666l-0.102-0.613l-0.103-0.561L18.308,516.99z"/>
</g>
</svg>
